<!-- Generator: Adobe Illustrator 21.0.0, SVG Export Plug-In  -->
<svg version="1.1"
	 xmlns="http://www.w3.org/2000/svg" xmlns:xlink="http://www.w3.org/1999/xlink" xmlns:a="http://ns.adobe.com/AdobeSVGViewerExtensions/3.0/"
	 x="0px" y="0px" width="1190.551px" height="415.138px" viewBox="0 0 1190.551 415.138"
	 style="enable-background:new 0 0 1190.551 415.138;" xml:space="preserve">
<style type="text/css">
	.st0{fill-rule:evenodd;clip-rule:evenodd;fill:#00643A;}
	.st1{fill-rule:evenodd;clip-rule:evenodd;fill:#009A42;}
	.st2{fill-rule:evenodd;clip-rule:evenodd;fill:#6CB535;}
</style>
<defs>
</defs>
<g>
	<path class="st0" d="M511.608,160.02v-15.088c0-3.2-0.457-3.2-1.372-3.2c-1.372,0-4.572,0-5.944,0.457c0,1.372,0,4.115,0,8.687
		v21.488c0,5.486,0,9.601,0,12.344c1.829,0,3.2,0,5.486-0.457c1.372,0,1.829,0,1.829-1.372v-18.288h16.002
		c7.315,0,10.058-0.457,11.887-0.457v19.66c0,0.914,0.457,0.914,1.372,0.914c0.914,0,4.572-0.457,5.944-0.457
		c0-1.372,0-3.658,0-8.23v-22.403c0-5.486,0-9.601,0-11.887c-1.372,0-4.115,0-5.486,0s-1.829,0.457-1.829,1.829v16.459H511.608
		L511.608,160.02z M607.163,140.818c-16.916,0-27.432,9.601-27.432,22.86c0,9.144,7.772,21.488,26.975,21.488
		c17.831,0,26.975-10.973,26.975-22.403C633.681,151.791,624.994,140.818,607.163,140.818L607.163,140.818L607.163,140.818z
		 M606.706,144.933c9.144,0,19.203,5.486,19.203,17.831c0,12.344-7.773,18.745-18.745,18.745c-9.601,0-19.66-6.401-19.66-18.745
		C587.503,151.333,596.19,144.933,606.706,144.933L606.706,144.933L606.706,144.933z M679.401,140.818
		c-12.344,0-16.002,6.858-16.002,10.973c0,3.2,1.829,7.315,10.516,12.344c7.772,4.572,10.516,6.401,10.516,10.058
		c0,4.572-4.572,6.858-9.601,6.858c-3.658,0-8.23-0.914-10.973-2.743c-0.914,0.457-1.372,1.372-1.372,2.743
		c0,0.914,0.457,1.372,1.372,1.829c1.829,1.372,5.944,2.286,10.973,2.286c9.601,0,17.374-3.658,17.374-11.43
		c0-5.944-4.115-9.144-11.887-13.259c-5.486-3.2-9.601-5.486-9.601-9.601c0-4.115,4.572-5.944,8.687-5.944
		c2.743,0,5.029,0.457,6.858,1.372c0.914,0.457,1.829,0.457,2.743-0.457c0.457-0.914,0.457-1.829,0.457-2.743
		c-1.372-0.914-5.029-2.286-9.601-2.286H679.401L679.401,140.818z M724.664,183.337c0,1.372,0.457,1.372,1.372,1.372
		c1.829,0,5.029,0,5.944-0.457c0-1.372,0-3.658,0-8.23V145.39c1.372,0,2.743,0,4.572,0c5.029,0,12.344,1.372,12.344,9.144
		c0,7.772-6.401,9.144-10.058,9.144c-0.914,0-1.829,0-2.286,0c0,1.372,0.914,2.743,1.829,3.2c0.457,0.457,1.829,0.457,3.2,0.457
		c5.486,0,15.088-3.2,15.088-12.802c0-9.601-8.23-13.259-20.117-13.259c-5.029,0-10.058,0.457-12.344,0.914
		c0.457,3.2,0.457,5.944,0.457,9.144V183.337L724.664,183.337z M790.043,183.337c0,1.372,0.457,1.372,1.372,1.372
		c1.372,0,4.572,0,5.944-0.457c0-1.372,0-3.658,0-8.23v-31.09c0-2.743-0.457-3.2-1.372-3.2c-1.372,0-5.029,0-6.401,0.457
		c0.457,0.914,0.457,4.115,0.457,8.687V183.337L790.043,183.337z M846.736,183.337c0,1.372,0.457,1.372,1.372,1.372
		c1.829,0,4.115,0,5.944-0.457c0-1.372,0-3.658,0-8.23v-30.175h15.545c0.914-0.457,2.743-2.286,2.743-4.115H844.45
		c-9.601,0-11.43,0-12.802-0.457c-0.457,0.914-1.372,1.829-2.286,3.2c-0.457,0.914,0,1.372,1.372,1.372h16.002V183.337
		L846.736,183.337z M928.118,171.45c2.743,5.486,3.658,7.772,5.486,11.43c0.914,1.372,1.372,1.829,2.743,1.829
		c0.914,0,4.115,0,5.944-0.914v-0.457c-1.372-2.286-3.658-6.401-6.858-12.802c-3.2-5.944-10.516-20.574-14.173-27.889
		c-0.457-0.457-0.914-0.914-1.829-0.914c-1.372,0-4.115,0-5.944,0.457l1.372,1.829c-2.743,5.486-16.916,31.09-21.946,39.319v0.457
		c0.914,0.457,3.658,0.914,5.029,0.914c0.914,0,1.829-0.457,1.829-0.914c1.372-2.286,4.115-6.858,7.315-12.344H928.118
		L928.118,171.45z M908.915,166.878c3.658-6.858,5.944-11.43,9.144-16.916c0.914,2.286,3.658,7.772,8.23,16.916H908.915
		L908.915,166.878z M973.381,182.88l1.372,1.372c2.286,0,7.315,0.457,14.173,0.457c5.944,0,8.687,0,9.601-0.457
		c2.286-0.457,3.658-1.829,4.115-4.115h-0.457c-3.2,0.457-8.23,0.457-12.344,0.457c-3.2,0-7.315,0-9.144-0.457V145.39
		c0-3.658-0.457-3.658-1.372-3.658c-1.829,0-4.572,0-5.944,0.457c0,1.372,0,4.115,0,8.687V182.88L973.381,182.88z M1076.251,183.337
		c5.029,1.372,9.144,1.829,15.545,1.829c4.572,0,13.716-0.914,20.574-5.486c7.315-5.029,9.601-10.973,9.601-17.374
		c0-8.23-4.572-21.031-31.09-21.031c-5.486,0-13.716,0.914-15.088,1.372c0.457,1.829,0.457,3.2,0.457,7.773V183.337
		L1076.251,183.337z M1083.566,145.847c1.829-0.457,4.115-0.457,6.858-0.457c16.002,0,23.317,6.858,23.317,17.374
		c0,13.716-10.973,18.288-21.946,18.288c-3.2,0-6.401-0.457-8.229-0.914V145.847L1083.566,145.847z M1154.89,182.88l1.372,1.372
		c1.829,0,7.315,0.457,14.173,0.457c5.944,0,8.687,0,9.601-0.457c1.829-0.457,3.2-1.829,4.115-4.115h-0.457
		c-3.2,0.457-8.23,0.457-11.887,0.457c-4.115,0-8.23-0.457-9.601-0.457v-15.545h13.259c2.743,0,4.572-0.457,5.486-4.115h-18.745
		v-14.63h10.973c3.658,0,5.029,0,5.944-0.457c1.372-0.457,2.286-1.829,2.286-3.658c-5.944,0-14.63,0-20.574,0
		c-2.286,0-4.572,0.457-6.401,0.914c0.457,2.743,0.457,5.486,0.457,8.687V182.88L1154.89,182.88z M504.293,205.283h684.887v5.029
		H504.293V205.283L504.293,205.283z M725.121,224.486l-2.743-3.2c-3.658-1.372-6.401-1.372-7.772-0.914
		c-3.2,1.372-13.716,6.401-16.002,7.772l0.914,1.372l13.259-2.286L725.121,224.486L725.121,224.486z M1162.662,231.801
		c-28.804,0-36.119,15.088-36.119,24.689c0,7.772,3.2,16.459,23.774,27.889c16.916,10.058,23.317,14.63,23.317,23.317
		c0,10.058-10.516,15.088-21.488,15.088c-8.23,0-18.745-2.286-25.603-6.858c-1.372,1.829-2.286,3.2-2.743,6.858
		c0,1.829,0.914,2.743,2.743,4.115c4.115,2.743,13.716,5.486,25.603,5.486c21.031,0,38.405-9.144,38.405-26.518
		c0-12.802-9.144-20.117-26.061-29.718c-12.802-7.315-21.946-11.887-21.946-21.031c0-10.058,10.058-14.173,19.202-14.173
		c5.944,0,11.43,1.372,15.545,2.743c2.743,1.372,4.572,1.372,5.944-0.457c1.372-1.829,1.829-4.115,1.829-5.944
		C1182.322,235.001,1173.178,231.801,1162.662,231.801L1162.662,231.801L1162.662,231.801z M1040.132,290.78
		c8.23-15.088,13.716-26.06,20.574-38.405c2.286,5.029,8.229,17.374,18.288,38.405H1040.132L1040.132,290.78z M1083.109,300.381
		c6.401,12.344,9.144,17.831,13.259,26.06c1.829,3.658,3.2,4.572,5.486,4.572c2.743,0,10.058-0.457,13.716-1.829v-0.914
		c-3.2-5.486-7.772-14.63-15.088-28.804c-7.772-14.173-23.774-47.092-32.461-63.551c-0.914-1.372-1.829-2.743-4.572-2.743
		c-2.286,0-8.23,0.914-12.344,1.829l2.286,4.572c-5.944,11.43-38.405,69.495-49.378,88.24l-0.457,1.372
		c3.2,0.914,9.144,1.829,12.344,1.829c1.829,0,3.2-0.914,4.115-1.829c3.201-5.486,8.687-16.002,15.545-28.804H1083.109
		L1083.109,300.381z M996.241,318.212c-5.486,1.829-17.831,4.115-28.804,4.115c-33.376,0-51.206-17.374-51.206-40.691
		c0-26.06,22.403-40.234,47.549-40.234c10.516,0,18.745,1.829,24.689,4.115c3.2,1.372,5.944,1.829,7.315,0.457
		c1.829-1.372,2.743-3.658,2.743-6.401c-3.2-2.743-16.459-7.772-33.833-7.772c-17.374,0-32.918,3.658-46.177,12.802
		c-14.63,10.973-19.66,25.146-19.66,37.948c0,29.261,22.86,49.835,65.38,49.835c12.802,0,22.86-2.286,26.975-4.572
		c2.743-1.829,5.029-5.029,5.944-9.144L996.241,318.212L996.241,318.212z M861.824,328.27c0,2.286,0.914,2.743,3.2,2.743
		c2.743,0,10.973-0.457,13.716-1.372c-0.457-3.2-0.457-8.23-0.457-18.745v-69.495c0-6.858-0.457-8.23-3.2-8.23
		c-3.2,0-11.43,0.914-13.716,1.372c0,2.743,0.457,9.144,0.457,19.66V328.27L861.824,328.27z M741.123,303.124
		c0,12.802-0.457,21.488-0.914,27.889c3.2,0,7.772-0.457,10.516-0.914c2.743-0.457,4.115-0.914,4.115-4.572v-39.319
		c0-7.772,0-16.002-0.914-34.747c7.315,10.058,13.716,17.831,20.574,26.06c16.459,18.745,35.204,39.319,48.006,53.035
		c0,0.457,1.372,1.372,2.743,1.372c3.658,0,10.058-1.829,10.973-2.286v-68.123c0-12.802,0.457-21.488,0.914-28.346
		c-3.658,0-5.486,0-10.973,0.914c-2.286,0-3.658,0.914-3.658,4.115v42.977c0,7.772,0,16.459,1.372,32.461
		c-5.029-7.772-13.259-16.916-22.86-27.432c-19.66-21.946-38.862-43.891-45.263-50.292c-1.829-1.829-3.658-2.743-5.029-2.743
		c-2.743,0-11.887,0.914-14.63,1.372v1.372l5.029,4.572V303.124L741.123,303.124z M696.317,328.27c0,2.286,0.914,2.743,3.2,2.743
		c3.2,0,10.973-0.457,13.716-1.372c0-3.2-0.457-8.23-0.457-18.745v-69.495c0-6.858-0.457-8.23-2.743-8.23
		c-3.2,0-11.43,0.914-14.173,1.372c0.457,2.743,0.457,9.144,0.457,19.66V328.27L696.317,328.27z M617.678,326.441l2.743,2.743
		c5.029,0.914,16.916,1.829,32.004,1.829c13.259,0,19.66-0.457,21.946-0.914c4.572-1.372,7.772-4.572,8.687-9.144
		c-7.315,0.457-19.66,0.457-28.346,0.457c-7.772,0-16.916-0.457-21.031-1.372v-78.181c0-7.772-0.457-8.687-2.743-8.687
		c-4.572,0-10.973,0.914-14.173,1.372c0.457,3.2,0.914,9.144,0.914,19.66V326.441L617.678,326.441z M600.305,318.212
		c-5.486,1.829-17.374,4.115-28.804,4.115c-33.376,0-51.206-17.374-51.206-40.691c0-26.06,22.403-40.234,47.549-40.234
		c10.516,0,18.745,1.829,25.146,4.115c2.743,1.372,5.486,1.829,6.858,0.457c1.829-1.372,2.743-3.658,3.2-6.401
		c-3.658-2.743-16.459-7.772-34.29-7.772c-17.374,0-32.918,3.658-45.72,12.802c-15.088,10.973-20.117,25.146-20.117,37.948
		c0,29.261,22.86,49.835,65.38,49.835c12.802,0,22.86-2.286,26.975-4.572c3.2-1.829,5.029-5.029,5.944-9.144L600.305,318.212z"/>
	<path class="st0" d="M142.19,272.949c32.004,31.547,21.488,82.296-5.944,112.929L111.1,360.731
		c14.173-15.545,37.49-55.321,18.288-74.981c-19.66-19.202-59.436,4.115-74.981,18.288l-25.146-25.146
		C59.893,251.46,110.643,240.945,142.19,272.949L142.19,272.949z M155.906,259.233c31.09,31.09,23.775,88.697-15.088,130.759
		l25.146,25.146c47.549-50.749,50.292-127.102,5.486-171.45C127.102,198.882,50.749,201.626,0,249.174l25.146,25.146
		C67.209,235.458,124.816,228.143,155.906,259.233L155.906,259.233z M272.492,272.949c31.547-32.004,82.296-21.488,112.929,5.944
		l-25.146,25.146c-15.545-14.173-55.321-37.491-74.981-18.288c-19.203,19.66,4.115,59.436,18.288,74.981l-25.146,25.146
		C251.003,355.245,240.945,304.496,272.492,272.949L272.492,272.949z M258.776,259.233c-31.09,31.09-23.774,88.697,15.088,130.759
		l-25.146,25.146c-47.549-50.749-50.292-127.102-5.486-171.45c44.349-44.806,120.701-42.062,171.908,5.487l-25.146,25.146
		C347.93,235.458,289.865,228.143,258.776,259.233L258.776,259.233z M272.492,142.647c31.547,31.547,82.296,21.489,112.929-5.944
		l-25.146-25.146c-15.545,14.173-55.321,37.491-74.981,18.288c-19.203-19.66,4.115-59.436,18.288-74.981l-25.146-25.146
		C251.003,60.35,240.945,111.1,272.492,142.647L272.492,142.647z M258.776,156.363c31.09,31.09,89.154,23.774,131.217-15.088
		l25.146,25.146c-51.207,47.549-127.559,50.292-171.908,5.486C198.425,127.559,201.168,51.206,248.717,0l25.146,25.146
		C235.001,67.208,227.686,125.273,258.776,156.363L258.776,156.363z M155.906,156.363c31.09-31.09,23.775-89.154-15.088-131.217
		L165.964,0c47.549,51.206,50.292,127.559,5.486,171.908C127.102,216.713,50.749,213.97,0,166.421l25.146-25.146
		C67.209,180.137,124.816,187.452,155.906,156.363L155.906,156.363z M142.19,142.647c32.004-31.547,21.488-82.296-5.944-112.929
		L111.1,54.864c14.173,15.545,37.49,55.321,18.288,74.981c-19.66,19.202-59.436-4.115-74.981-18.288l-25.146,25.146
		C59.893,164.135,110.643,174.193,142.19,142.647z"/>
	<path class="st1" d="M43.434,292.608l10.973,11.43c15.545-14.173,55.321-37.491,74.981-18.288
		c19.202,19.66-4.115,59.436-18.288,74.981l11.43,10.973l10.516-10.516c11.43-12.802,26.518-60.35,2.743-81.839l0,0l0,0
		c-21.489-23.774-69.037-8.687-81.839,2.743L43.434,292.608L43.434,292.608z M155.906,259.233
		c-31.09-31.09-88.697-23.774-130.759,15.088l-11.887-11.43l10.516-10.516c27.889-23.775,98.755-43.434,139.903-0.914
		c42.52,41.148,22.86,112.014-0.914,139.903l-10.516,10.516l-11.43-11.887C179.68,347.93,186.995,290.322,155.906,259.233
		L155.906,259.233z M371.247,292.608l-10.973,11.43c-15.545-14.173-55.321-37.491-74.981-18.288
		c-19.203,19.66,4.115,59.436,18.288,74.981l-10.973,10.973l-10.973-10.516c-10.973-12.802-26.518-60.35-2.743-81.839l0,0l0,0
		c21.488-23.774,69.037-8.687,81.839,2.743L371.247,292.608L371.247,292.608z M258.776,259.233
		c31.09-31.09,89.154-23.774,131.217,15.088l11.43-11.43l-10.516-10.516c-27.889-23.775-98.755-43.434-139.904-0.914
		c-42.52,41.148-22.86,112.014,0.914,139.903l10.516,10.516l11.43-11.887C235.001,347.93,227.686,290.322,258.776,259.233
		L258.776,259.233z M292.609,43.891l10.973,10.973c-14.173,15.545-37.491,55.321-18.288,74.981
		c19.66,19.202,59.436-4.115,74.981-18.288l10.973,10.973l-10.516,10.973c-12.802,10.973-60.351,26.518-81.839,2.743l0,0l0,0
		c-23.775-21.488-8.23-69.037,2.743-81.839L292.609,43.891L292.609,43.891z M258.776,156.363
		c-31.09-31.09-23.774-89.154,15.088-131.217l-11.43-11.43l-10.516,10.516c-23.774,27.889-43.434,98.755-0.914,139.904
		c41.148,42.52,112.014,22.86,139.904-0.914l10.516-10.516l-11.43-11.43C347.93,180.137,289.865,187.452,258.776,156.363
		L258.776,156.363z M155.906,156.363c-31.09,31.09-88.697,23.774-130.759-15.088l-11.887,11.43l10.516,10.516
		c27.889,23.774,98.755,43.434,139.903,0.914c42.52-41.148,22.86-112.014-0.914-139.904l-10.516-10.516l-11.43,11.43
		C179.68,67.208,186.995,125.273,155.906,156.363L155.906,156.363z M122.53,43.891l10.516,10.516
		c11.43,12.802,26.518,60.351,2.743,81.839l0,0l0,0c-21.489,23.774-69.037,8.23-81.839-2.743L43.434,122.53l10.973-10.973
		c15.545,14.173,55.321,37.491,74.981,18.288c19.202-19.66-4.115-59.436-18.288-74.981L122.53,43.891z"/>
	<path class="st2" d="M251.918,24.232L248.717,0l12.802,12.802l12.345,12.344L251.918,24.232L251.918,24.232z M162.764,24.232
		L165.964,0l-12.802,12.802l-12.344,12.344L162.764,24.232L162.764,24.232z M133.046,54.407l3.2-24.689L123.444,42.52L111.1,54.864
		L133.046,54.407L133.046,54.407z M53.95,133.503l-24.689,3.2l12.802-12.802l12.344-12.344L53.95,133.503L53.95,133.503z
		 M23.774,163.221L0,166.421l12.344-12.802l12.802-12.344L23.774,163.221L23.774,163.221z M23.774,252.375L0,249.174l12.344,12.802
		l12.802,12.344L23.774,252.375L23.774,252.375z M53.95,282.093l-24.689-3.2l12.802,12.802l12.344,12.345L53.95,282.093
		L53.95,282.093z M133.046,361.189l3.2,24.689l-12.802-12.802L111.1,360.731L133.046,361.189L133.046,361.189z M162.764,391.364
		l3.2,23.774l-12.802-12.344l-12.344-12.802L162.764,391.364L162.764,391.364z M251.918,391.364l-3.2,23.774l12.802-12.344
		l12.345-12.802L251.918,391.364L251.918,391.364z M281.636,361.189l-3.2,24.689l12.802-12.802l12.344-12.344L281.636,361.189
		L281.636,361.189z M360.732,282.093l24.689-3.2l-12.802,12.802l-12.345,12.345L360.732,282.093L360.732,282.093z M390.907,252.375
		l24.232-3.2l-12.802,12.802l-12.344,12.344L390.907,252.375L390.907,252.375z M390.907,163.221l24.232,3.2l-12.802-12.802
		l-12.344-12.344L390.907,163.221L390.907,163.221z M360.732,133.503l24.689,3.2l-12.802-12.802l-12.345-12.344L360.732,133.503
		L360.732,133.503z M281.636,54.407l-3.2-24.689l12.802,12.802l12.344,12.344L281.636,54.407z"/>
</g>
</svg>